# xmcd
#
# Track frame offsets:
#	150
#	14315
#	29660
#	49545
#	68295
#	82770
#	97530
#	116707
#	132645
#
# Disc length: 2124 seconds
#
# Revision: 2
# Processed by: cddbd v1.4PL0 Copyright (c) Steve Scherf et al.
# Submitted via: MusicManager 7.0.1.0 
#
DISCID=63084a09
DTITLE=Big Twist and The Mellow Fellows - Playing For Keeps
DYEAR=1983
DGENRE=
TTITLE0=300 Pounds Of Heavenly Joy
TTITLE1=Flip Flop
TTITLE2=I want Your Love
TTITLE3=Polk Salad Annie
TTITLE4=Pouring Water On A Drowning Man
TTITLE5=I Got A Problem
TTITLE6=I Brought The Blues On Myself
TTITLE7=We're Gonna Make It
TTITLE8=Just One Woman
EXTD=
EXTT0=
EXTT1=
EXTT2=
EXTT3=
EXTT4=
EXTT5=
EXTT6=
EXTT7=
EXTT8=
PLAYORDER=
